<svg preserveAspectRatio="none" width="100%" height="100%" overflow="visible" style="display: block;" viewBox="0 0 22.5 25" fill="none" xmlns="http://www.w3.org/2000/svg">
<path id="Vector" fill-rule="evenodd" clip-rule="evenodd" d="M17.1563 0C17.7975 0 18.3175 0.5225 18.3175 1.16875V2.37H20.18C21.445 2.37 22.5 3.43125 22.5 4.70375V22.6662C22.5 23.9387 21.445 25 20.18 25H2.32C1.055 25 0 23.9387 0 22.6662V4.70375C0 3.43125 1.055 2.37 2.32 2.37H4.18125L4.1825 1.16875C4.1825 0.5225 4.70125 0 5.34375 0C5.98625 0 6.505 0.5225 6.505 1.16875V2.37H15.9938L15.995 1.16875C15.995 0.5225 16.515 0 17.1563 0ZM5.36 7.73L5.2575 7.845C4.8825 8.3275 4.9175 9.02375 5.36 9.46625L9.51375 13.62L5.36 17.775C4.88 18.2538 4.88 19.0313 5.36 19.5113C5.83875 19.99 6.61625 19.99 7.09625 19.5113L11.25 15.3562L15.4037 19.5113C15.8837 19.99 16.6612 19.99 17.14 19.5113L17.2425 19.395C17.6175 18.9137 17.5825 18.2175 17.14 17.775L12.9862 13.62L17.14 9.46625C17.62 8.98625 17.62 8.20875 17.14 7.73C16.6612 7.25 15.8837 7.25 15.4037 7.73L11.25 11.8837L7.09625 7.73C6.61625 7.25 5.83875 7.25 5.36 7.73Z" fill="var(--fill-0, #3182F6)"/>
</svg>
