<svg preserveAspectRatio="none" width="100%" height="100%" overflow="visible" style="display: block;" viewBox="0 0 15.75 15.75" fill="none" xmlns="http://www.w3.org/2000/svg">
<path id="Vector" fill-rule="evenodd" clip-rule="evenodd" d="M8.625 7.69575C8.625 7.7205 8.613 7.74225 8.61075 7.76625C8.60625 7.81725 8.5965 7.8675 8.58 7.9155C8.553 8.0055 8.50875 8.08875 8.4495 8.1615C8.4165 8.20125 8.382 8.2365 8.3415 8.2695C8.32275 8.2845 8.3115 8.30625 8.29125 8.31975L4.74675 10.6823C4.581 10.7888 4.38075 10.8255 4.188 10.785C3.996 10.7445 3.8265 10.6305 3.71775 10.467C3.609 10.3035 3.5685 10.1032 3.60525 9.9105C3.642 9.717 3.753 9.546 3.915 9.43425L7.125 7.2945V3.792C7.125 3.59325 7.20375 3.402 7.34475 3.26175C7.485 3.12075 7.67625 3.042 7.875 3.042C8.07375 3.042 8.265 3.12075 8.40525 3.26175C8.54625 3.402 8.625 3.59325 8.625 3.792V7.69575ZM7.875 0C3.52575 0 0 3.52575 0 7.875C0 12.2242 3.52575 15.75 7.875 15.75C12.2242 15.75 15.75 12.2242 15.75 7.875C15.75 3.52575 12.2242 0 7.875 0Z" fill="var(--fill-0, #D97706)"/>
</svg>
