<svg width="20" height="20" viewBox="0 0 20 20" fill="none" xmlns="http://www.w3.org/2000/svg">
<path fill-rule="evenodd" clip-rule="evenodd" d="M10.8333 9.80083C10.8333 9.82833 10.82 9.8525 10.8175 9.87917C10.8125 9.93583 10.8017 9.99167 10.7833 10.045C10.7533 10.145 10.7042 10.2375 10.6383 10.3183C10.6017 10.3625 10.5633 10.4017 10.5183 10.4383C10.4975 10.455 10.485 10.4792 10.4625 10.4942L6.52417 13.1192C6.34 13.2375 6.1175 13.2783 5.90333 13.2333C5.69 13.1883 5.50167 13.0617 5.38083 12.88C5.26 12.6983 5.215 12.4758 5.25583 12.2617C5.29667 12.0467 5.42 11.8567 5.6 11.7325L9.16667 9.355V5.46333C9.16667 5.2425 9.25417 5.03 9.41083 4.87417C9.56667 4.7175 9.77917 4.63 10 4.63C10.2208 4.63 10.4333 4.7175 10.5892 4.87417C10.7458 5.03 10.8333 5.2425 10.8333 5.46333V9.80083ZM10 1.25C5.1675 1.25 1.25 5.1675 1.25 10C1.25 14.8325 5.1675 18.75 10 18.75C14.8325 18.75 18.75 14.8325 18.75 10C18.75 5.1675 14.8325 1.25 10 1.25Z" fill="#4E5968"/>
</svg>
