<svg width="20" height="20" viewBox="0 0 20 20" fill="none" xmlns="http://www.w3.org/2000/svg">
<path fill-rule="evenodd" clip-rule="evenodd" d="M17.5575 6.83666L10.5183 1.23916C10.3708 1.12166 10.1883 1.0575 10 1.0575C9.81167 1.0575 9.62917 1.12166 9.48167 1.23916L2.44167 6.83666C2.24583 6.9925 2.08667 7.19083 1.97833 7.41666C1.86917 7.6425 1.8125 7.89 1.8125 8.14083V15.9892C1.8125 16.5192 2.02333 17.0283 2.39833 17.4033C2.77333 17.7783 3.28167 17.9892 3.8125 17.9892H8.33333V14.0292C8.33333 13.8075 8.42083 13.5958 8.5775 13.4392C8.73333 13.2833 8.94583 13.1958 9.16667 13.1958H10.8333C11.0542 13.1958 11.2667 13.2833 11.4225 13.4392C11.5792 13.5958 11.6667 13.8075 11.6667 14.0292V17.9892H16.1867C16.7175 17.9892 17.2258 17.7783 17.6008 17.4033C17.9758 17.0283 18.1867 16.5192 18.1867 15.9892V8.14166C18.1867 7.89083 18.13 7.64333 18.0208 7.41749C17.9125 7.19166 17.7533 6.9925 17.5575 6.83666Z" fill="#1B64DA"/>
</svg>
