<svg width="20" height="20" viewBox="0 0 20 20" fill="none" xmlns="http://www.w3.org/2000/svg">
<path fill-rule="evenodd" clip-rule="evenodd" d="M14.7125 12.9733C14.7125 13.47 14.4484 13.755 13.99 13.755C13.5367 13.755 13.2717 13.4642 13.2717 12.9733V7.72916H13.2392L12.5009 8.25166C12.2684 8.40333 12.1342 8.45166 11.9775 8.45166C11.9092 8.45333 11.8409 8.44166 11.7775 8.41666C11.7134 8.39083 11.6559 8.35333 11.6075 8.305C11.5584 8.25666 11.5209 8.19833 11.495 8.135C11.47 8.07166 11.4575 8.00333 11.4592 7.935C11.4592 7.7075 11.5992 7.5075 11.8759 7.32416L12.84 6.65C13.2292 6.385 13.5367 6.2775 13.8384 6.2775C14.3634 6.2775 14.7134 6.63833 14.7134 7.18416L14.7125 12.9733ZM7.86005 13.8483C6.40338 13.8483 5.28672 13.0267 5.28672 12.1367C5.28672 11.7967 5.52922 11.5492 5.85838 11.5492C6.09588 11.5492 6.27505 11.6625 6.47338 11.9533C6.78672 12.45 7.26672 12.7142 7.87172 12.7142C8.68088 12.7142 9.20505 12.2775 9.20505 11.6083C9.20505 10.9392 8.67005 10.4858 7.87672 10.4858H7.34838C7.02422 10.4858 6.78672 10.2442 6.78672 9.90833C6.78672 9.585 7.02005 9.3425 7.34838 9.3425H7.85005C8.51338 9.3425 9.00005 8.91083 9.00005 8.3175C9.00005 7.72333 8.52505 7.31833 7.83838 7.31833C7.30505 7.31833 6.88922 7.56666 6.60338 8.0525L6.54172 8.14666C6.39338 8.34916 6.22088 8.43583 6.00005 8.43583C5.92088 8.43916 5.84255 8.42666 5.76838 8.3975C5.69505 8.36916 5.62755 8.32583 5.57172 8.27C5.51588 8.21416 5.47255 8.14666 5.44422 8.07333C5.41505 7.99916 5.40255 7.92083 5.40588 7.84166C5.40588 6.97916 6.45755 6.18583 7.86588 6.18583C9.35505 6.18583 10.4017 6.98916 10.4017 8.13916C10.4017 8.9375 9.80255 9.6725 9.05838 9.77916V9.87083C9.95422 9.95666 10.6284 10.7233 10.6284 11.6567C10.6284 12.9458 9.48422 13.8483 7.86005 13.8483ZM16.035 1.94166H15.1V1.09166C15.1 0.86583 15.0109 0.649996 14.8509 0.49083C14.6917 0.33083 14.4759 0.241663 14.25 0.241663C14.0242 0.241663 13.8084 0.33083 13.6492 0.49083C13.4892 0.649996 13.4001 0.86583 13.4001 1.09166V1.94166H6.60005V1.09166C6.60338 0.977496 6.58422 0.864163 6.54338 0.75833C6.50172 0.651663 6.44005 0.554996 6.36088 0.47333C6.28172 0.391663 6.18672 0.326663 6.08172 0.282496C5.97672 0.237496 5.86422 0.214996 5.75005 0.214996C5.63672 0.214996 5.52422 0.237496 5.41922 0.282496C5.31422 0.326663 5.21922 0.391663 5.14005 0.47333C5.06088 0.554996 4.99922 0.651663 4.95755 0.75833C4.91672 0.864163 4.89755 0.977496 4.90088 1.09166V1.94166H3.96505C3.69672 1.94166 3.43172 1.99416 3.18422 2.09666C2.93672 2.19916 2.71172 2.34916 2.52255 2.53916C2.33255 2.72833 2.18255 2.95333 2.08005 3.20083C1.97755 3.44833 1.92505 3.71333 1.92505 3.98166V16.0517C1.92505 16.3192 1.97755 16.585 2.08005 16.8325C2.18255 17.08 2.33255 17.305 2.52255 17.4942C2.71172 17.6842 2.93672 17.8342 3.18422 17.9367C3.43172 18.0392 3.69672 18.0917 3.96505 18.0917H16.035C16.5759 18.0917 17.095 17.8767 17.4775 17.4942C17.86 17.1117 18.075 16.5925 18.075 16.0517V3.98166C18.075 3.44083 17.86 2.92166 17.4775 2.53916C17.095 2.15666 16.5759 1.94166 16.035 1.94166Z" fill="#4E5968"/>
</svg>
