<svg width="20" height="20" viewBox="0 0 20 20" fill="none" xmlns="http://www.w3.org/2000/svg">
<g clip-path="url(#clip0_0_46)">
<path d="M9.94552 0.00610781C10.6756 -0.0397778 11.3986 0.180473 11.9757 0.633211C12.561 1.09207 12.9505 1.75282 13.0739 2.48597H13.0759C13.077 2.49209 13.08 2.49922 13.0841 2.50432C13.0851 2.50534 13.0861 2.50636 13.0872 2.50738L13.7744 2.84082C14.5198 3.20076 15.1826 3.71468 15.7169 4.34892L15.719 4.35096C16.4541 5.22789 16.9028 5.96104 17.1241 6.90832C17.327 7.78117 17.3198 8.79371 17.3198 10.1295C17.3198 10.416 17.4952 10.8117 17.897 11.4316C18.0571 11.6794 18.312 12.0495 18.4884 12.331C18.6638 12.6124 18.8504 12.9418 18.9778 13.2915C19.1512 13.6872 19.2205 14.1215 19.1777 14.5518C19.1359 14.9811 18.984 15.3941 18.7372 15.7479C18.4904 16.1028 18.157 16.3893 17.7695 16.579C17.3933 16.7625 16.9772 16.8482 16.5592 16.8318H14.0375C13.9906 17.0297 13.9294 17.2254 13.8529 17.4151C13.6449 17.9311 13.336 18.3991 12.9424 18.7927C12.5498 19.1853 12.0807 19.4952 11.5658 19.7022C11.0621 19.9052 10.5247 20.0051 9.98325 19.999C9.97611 19.999 9.96898 19.999 9.96184 19.999C9.95572 19.999 9.94858 20 9.94246 20C9.39999 20.0061 8.86262 19.9062 8.3589 19.7033C7.84294 19.4963 7.37389 19.1863 6.98029 18.7937C6.58772 18.4001 6.27773 17.9311 6.07074 17.4151C5.99426 17.2254 5.93206 17.0297 5.88516 16.8318H3.38286C2.79961 16.8318 2.26937 16.7085 1.83091 16.424C1.38327 16.1354 1.11102 15.7316 0.964183 15.3227C0.691928 14.5641 0.837742 13.7667 0.97234 13.3333V13.3323C1.09674 12.9336 1.2966 12.5675 1.48626 12.2586C1.66572 11.9649 1.90025 11.6233 2.06034 11.3755C2.44374 10.7851 2.60587 10.4191 2.60587 10.1295C2.60587 8.79371 2.59975 7.78117 2.80267 6.90832C3.02292 5.96104 3.47158 5.22891 4.20676 4.35198L4.2088 4.34994C4.7421 3.7157 5.40285 3.20178 6.14925 2.84184L6.88852 2.48291C6.89362 2.47985 6.89872 2.47679 6.90178 2.47271L6.90892 2.4564C7.03638 1.75078 7.41264 1.11246 7.97244 0.661762C8.53021 0.212083 9.23073 -0.0183645 9.94552 0.00610781ZM8.04382 16.8318C8.14273 17.0235 8.27019 17.1989 8.42314 17.3519C8.62096 17.5507 8.85854 17.7067 9.11958 17.8118C9.38062 17.9168 9.65899 17.9667 9.94042 17.9606C9.95368 17.9606 9.96796 17.9606 9.98223 17.9606C10.2626 17.9667 10.5431 17.9158 10.8031 17.8107C11.0641 17.7057 11.3017 17.5497 11.5005 17.3509C11.6535 17.1979 11.7799 17.0225 11.8778 16.8318H8.04382ZM10.0516 2.04037C10.0016 2.04445 9.95164 2.04547 9.90168 2.04241C9.66715 2.02813 9.43568 2.10257 9.25214 2.2494C9.06962 2.39726 8.94726 2.60731 8.91055 2.83878C8.90749 2.86121 8.90239 2.88466 8.89729 2.9071C8.82999 3.20382 8.69947 3.48322 8.51185 3.72284C8.32525 3.96349 8.08869 4.16028 7.81745 4.29896C7.81133 4.30202 7.80419 4.30508 7.79808 4.30814L7.0374 4.67726L7.03536 4.67828C6.54897 4.91281 6.11662 5.24624 5.76891 5.65921L5.76993 5.66023C5.14181 6.4097 4.90932 6.85632 4.789 7.37227C4.65134 7.96267 4.64523 8.69786 4.64523 10.1295C4.64523 11.0859 4.14252 11.9149 3.77238 12.485C3.55621 12.8184 3.39306 13.0499 3.22481 13.3231C3.06676 13.5811 2.96887 13.7789 2.91891 13.94C2.88832 14.0389 2.85875 14.1766 2.85161 14.3183C2.84345 14.4631 2.85977 14.5682 2.88322 14.6334C2.90157 14.6834 2.91789 14.6977 2.93828 14.7109C2.96683 14.7293 3.0841 14.7925 3.38286 14.7925H16.5755C16.5938 14.7925 16.6142 14.7935 16.6326 14.7945C16.7162 14.7986 16.7998 14.7823 16.8753 14.7456C16.9497 14.7089 17.015 14.6528 17.0629 14.5845C17.1108 14.5162 17.1394 14.4356 17.1475 14.352C17.1557 14.2694 17.1434 14.1848 17.1098 14.1083C17.0976 14.0797 17.0853 14.0502 17.0761 14.0206C17.0282 13.8758 16.9283 13.6821 16.76 13.4129C16.5775 13.1212 16.4174 12.8979 16.186 12.541C15.8036 11.9517 15.2805 11.089 15.2805 10.1295C15.2805 8.69786 15.2744 7.96267 15.1367 7.37227C15.0174 6.85734 14.7839 6.41072 14.1558 5.66125C13.807 5.24828 13.3747 4.91281 12.8883 4.67828L12.8863 4.67726L12.1256 4.30814C12.0981 4.29386 12.0705 4.27959 12.044 4.26429C11.7952 4.11338 11.5801 3.91148 11.4128 3.6739C11.2456 3.43529 11.1304 3.16304 11.0743 2.87753C11.0723 2.86427 11.0692 2.84999 11.0672 2.83674C11.0305 2.60017 10.905 2.38604 10.7174 2.23717C10.5288 2.08931 10.2902 2.01998 10.0516 2.04037Z" fill="#4E5968"/>
</g>
<defs>
<clipPath id="clip0_0_46">
<rect width="20" height="20" fill="white"/>
</clipPath>
</defs>
</svg>
