<svg width="20" height="20" viewBox="0 0 20 20" fill="none" xmlns="http://www.w3.org/2000/svg">
<g clip-path="url(#clip0_0_17)">
<path fill-rule="evenodd" clip-rule="evenodd" d="M16.9316 9H11.0982V3.16667C11.0982 2.90167 10.9932 2.64751 10.8057 2.45917C10.6174 2.27167 10.3632 2.16667 10.0982 2.16667C9.83323 2.16667 9.57906 2.27167 9.39073 2.45917C9.20323 2.64751 9.09823 2.90167 9.09823 3.16667V9H3.26489C2.99989 9 2.74573 9.105 2.55739 9.2925C2.36989 9.48084 2.26489 9.735 2.26489 10C2.26489 10.265 2.36989 10.5192 2.55739 10.7075C2.74573 10.895 2.99989 11 3.26489 11H9.09823V16.8333C9.09823 17.0983 9.20323 17.3525 9.39073 17.5408C9.57906 17.7283 9.83323 17.8333 10.0982 17.8333C10.3632 17.8333 10.6174 17.7283 10.8057 17.5408C10.9932 17.3525 11.0982 17.0983 11.0982 16.8333V11H16.9316C17.1966 11 17.4507 10.895 17.6391 10.7075C17.8266 10.5192 17.9316 10.265 17.9316 10C17.9316 9.735 17.8266 9.48084 17.6391 9.2925C17.4507 9.105 17.1966 9 16.9316 9Z" fill="#4E5968"/>
</g>
<defs>
<clipPath id="clip0_0_17">
<rect width="20" height="20" fill="white"/>
</clipPath>
</defs>
</svg>
