<svg width="20" height="20" viewBox="0 0 20 20" fill="none" xmlns="http://www.w3.org/2000/svg">
<path fill-rule="evenodd" clip-rule="evenodd" d="M10.0003 13.0558C9.59864 13.0558 9.20197 12.9767 8.83114 12.8233C8.4603 12.67 8.12364 12.445 7.83947 12.1608C7.55614 11.8775 7.33114 11.54 7.17697 11.17C7.02364 10.7992 6.94447 10.4017 6.94447 10C6.94447 9.59918 7.02364 9.20168 7.17697 8.83084C7.33114 8.46084 7.55614 8.12334 7.83947 7.84001C8.12364 7.55584 8.4603 7.33084 8.83114 7.17751C9.20197 7.02418 9.59864 6.94501 10.0003 6.94501C10.8103 6.94501 11.5878 7.26668 12.1603 7.84001C12.7336 8.41251 13.0553 9.19001 13.0553 10C13.0553 10.8108 12.7336 11.5883 12.1603 12.1608C11.5878 12.7342 10.8103 13.0558 10.0003 13.0558ZM17.5278 11.6267C17.1086 11.1925 16.8745 10.6125 16.8753 10.0092V9.99168C16.8745 9.38834 17.1086 8.80834 17.5278 8.37418L18.3103 7.56584C18.632 7.23251 18.6936 6.72584 18.4628 6.32501L17.4145 4.51001C17.302 4.31501 17.1286 4.16084 16.9211 4.07334C16.7136 3.98501 16.4828 3.96668 16.2645 4.02168L15.1686 4.29501C14.5803 4.44251 13.957 4.35334 13.4336 4.04751L13.4186 4.03918C12.9028 3.73918 12.5228 3.25168 12.3595 2.67751L12.0461 1.58668C11.9845 1.37001 11.8536 1.17918 11.6736 1.04251C11.4936 0.906677 11.2736 0.833344 11.0486 0.833344H8.95197C8.48947 0.833344 8.08114 1.14084 7.95447 1.58668L7.61697 2.76084C7.46864 3.28584 7.12031 3.73084 6.64697 4.00168C6.59781 4.02918 6.54947 4.05751 6.50197 4.08668C6.02697 4.36918 5.45864 4.45251 4.92281 4.31834L3.73531 4.02168C3.51614 3.96668 3.28614 3.98501 3.07864 4.07334C2.87114 4.16084 2.69781 4.31418 2.58531 4.50918L1.53781 6.32501C1.42531 6.52001 1.37864 6.74668 1.40614 6.97084C1.43364 7.19501 1.53364 7.40334 1.69031 7.56584L2.47281 8.37418C2.89197 8.80834 3.12614 9.38834 3.12614 9.99084V10.0092C3.12614 10.6125 2.89197 11.1925 2.47281 11.6267L2.05364 12.06C1.79197 12.33 1.62614 12.6783 1.57947 13.0517C1.53364 13.425 1.61031 13.8025 1.79864 14.1283L2.58614 15.4908C2.81781 15.8925 3.28614 16.0917 3.73614 15.9792L4.92364 15.6825C5.45947 15.5483 6.02781 15.6317 6.50281 15.9142C6.55031 15.9433 6.59864 15.9717 6.64781 15.9992C7.12197 16.2675 7.46781 16.715 7.61781 17.24L7.95447 18.4142C8.08114 18.86 8.48947 19.1667 8.95197 19.1667H11.0486C11.5111 19.1667 11.9195 18.86 12.0461 18.4142L12.3828 17.24C12.5328 16.715 12.8786 16.2675 13.3528 15.9992C13.402 15.9717 13.4503 15.9433 13.4978 15.9142C13.9728 15.6317 14.5403 15.5483 15.077 15.6825L16.2645 15.9792C16.4828 16.0342 16.7136 16.0158 16.9211 15.9275C17.1286 15.84 17.3011 15.6867 17.4145 15.4917L18.4628 13.6758C18.5753 13.4808 18.6211 13.2542 18.5936 13.03C18.5661 12.8058 18.467 12.5975 18.3103 12.435L17.5278 11.6267Z" fill="#4E5968"/>
</svg>
