<svg width="40" height="40" viewBox="0 0 40 40" fill="none" xmlns="http://www.w3.org/2000/svg">
<g clip-path="url(#clip0_11_4141)">
<path d="M35.4299 23.543L38.1649 20.808C38.2712 20.702 38.3556 20.5761 38.4131 20.4374C38.4707 20.2988 38.5003 20.1501 38.5003 20C38.5003 19.8499 38.4707 19.7012 38.4131 19.5626C38.3556 19.4239 38.2712 19.298 38.1649 19.192L35.4299 16.457C35.2883 16.3157 35.1862 16.1399 35.1335 15.9469C35.0809 15.754 35.0797 15.5506 35.1299 15.357L36.1299 11.621C36.2084 11.3282 36.1674 11.0162 36.0158 10.7537C35.8643 10.4911 35.6147 10.2995 35.3219 10.221L31.5859 9.221C31.3919 9.16952 31.215 9.06767 31.0731 8.92577C30.9312 8.78387 30.8294 8.60697 30.7779 8.413L29.7779 4.677C29.6994 4.3842 29.5078 4.13458 29.2452 3.98306C28.9827 3.83153 28.6707 3.7905 28.3779 3.869L24.6419 4.869C24.4488 4.92028 24.2455 4.92002 24.0525 4.86826C23.8595 4.8165 23.6835 4.71504 23.5419 4.574L20.8079 1.835C20.7019 1.72869 20.576 1.64435 20.4373 1.58679C20.2987 1.52924 20.15 1.49962 19.9999 1.49962C19.8498 1.49962 19.7011 1.52924 19.5625 1.58679C19.4238 1.64435 19.2979 1.72869 19.1919 1.835L16.4569 4.57C16.3153 4.71104 16.1393 4.8125 15.9463 4.86426C15.7532 4.91602 15.55 4.91628 15.3569 4.865L11.6209 3.865C11.3281 3.7865 11.0161 3.82753 10.7536 3.97906C10.491 4.13058 10.2994 4.3802 10.2209 4.673L9.2209 8.409C9.16942 8.60297 9.06756 8.77987 8.92566 8.92177C8.78376 9.06367 8.60686 9.16552 8.4129 9.217L4.6769 10.217C4.3841 10.2955 4.13448 10.4871 3.98295 10.7497C3.83142 11.0122 3.79039 11.3242 3.8689 11.617L4.8689 15.353C4.92017 15.5461 4.91992 15.7494 4.86815 15.9424C4.81639 16.1354 4.71493 16.3114 4.5739 16.453L1.8349 19.192C1.72859 19.298 1.64424 19.4239 1.58669 19.5626C1.52914 19.7012 1.49951 19.8499 1.49951 20C1.49951 20.1501 1.52914 20.2988 1.58669 20.4374C1.64424 20.5761 1.72859 20.702 1.8349 20.808L4.5699 23.543C4.71093 23.6846 4.81239 23.8606 4.86415 24.0536C4.91592 24.2467 4.91617 24.4499 4.8649 24.643L3.8649 28.379C3.78639 28.6718 3.82742 28.9838 3.97895 29.2463C4.13048 29.5089 4.3801 29.7005 4.6729 29.779L8.4089 30.779C8.60286 30.8305 8.77976 30.9323 8.92166 31.0742C9.06356 31.2161 9.16542 31.393 9.2169 31.587L10.2169 35.323C10.2954 35.6158 10.487 35.8654 10.7496 36.017C11.0121 36.1685 11.3241 36.2095 11.6169 36.131L15.3529 35.131C15.5465 35.0808 15.7499 35.082 15.9428 35.1346C16.1358 35.1873 16.3116 35.2894 16.4529 35.431L19.1879 38.166C19.2939 38.2723 19.4198 38.3567 19.5585 38.4142C19.6971 38.4718 19.8458 38.5014 19.9959 38.5014C20.146 38.5014 20.2947 38.4718 20.4333 38.4142C20.572 38.3567 20.6979 38.2723 20.8039 38.166L23.5389 35.431C23.6802 35.2894 23.856 35.1873 24.049 35.1346C24.2419 35.082 24.4453 35.0808 24.6389 35.131L28.3749 36.131C28.6677 36.2095 28.9797 36.1685 29.2422 36.017C29.5048 35.8654 29.6964 35.6158 29.7749 35.323L30.7749 31.587C30.8264 31.393 30.9282 31.2161 31.0701 31.0742C31.212 30.9323 31.3889 30.8305 31.5829 30.779L35.3189 29.779C35.6117 29.7005 35.8613 29.5089 36.0128 29.2463C36.1644 28.9838 36.2054 28.6718 36.1269 28.379L35.1269 24.643C35.077 24.4492 35.0788 24.2456 35.1319 24.0527C35.1851 23.8597 35.2878 23.684 35.4299 23.543Z" fill="#FFCD00"/>
<path d="M20 32.333C26.8113 32.333 32.333 26.8113 32.333 20C32.333 13.1887 26.8113 7.66699 20 7.66699C13.1887 7.66699 7.66699 13.1887 7.66699 20C7.66699 26.8113 13.1887 32.333 20 32.333Z" fill="#FFAA00"/>
<path d="M16.5469 19.009C17.4272 19.009 18.1409 18.2953 18.1409 17.415C18.1409 16.5347 17.4272 15.821 16.5469 15.821C15.6665 15.821 14.9529 16.5347 14.9529 17.415C14.9529 18.2953 15.6665 19.009 16.5469 19.009Z" fill="#191F28"/>
<path d="M23.4529 19.009C24.3332 19.009 25.0469 18.2953 25.0469 17.415C25.0469 16.5347 24.3332 15.821 23.4529 15.821C22.5725 15.821 21.8589 16.5347 21.8589 17.415C21.8589 18.2953 22.5725 19.009 23.4529 19.009Z" fill="#191F28"/>
<path d="M19.9999 23.356C18.3314 23.3761 16.6707 23.1262 15.0819 22.616C14.9873 22.5839 14.8847 22.5841 14.7903 22.6167C14.6958 22.6492 14.6148 22.7122 14.56 22.7957C14.5052 22.8792 14.4797 22.9786 14.4875 23.0782C14.4952 23.1778 14.5358 23.272 14.6029 23.346C16.1092 24.6152 18.0311 25.2836 19.9999 25.223C21.9698 25.2844 23.8928 24.6159 25.3999 23.346C25.467 23.272 25.5076 23.1778 25.5154 23.0782C25.5232 22.9786 25.4977 22.8792 25.4429 22.7957C25.388 22.7122 25.3071 22.6492 25.2126 22.6167C25.1181 22.5841 25.0155 22.5839 24.9209 22.616C23.3313 23.1265 21.6694 23.3764 19.9999 23.356Z" fill="#EC6700"/>
</g>
<defs>
<clipPath id="clip0_11_4141">
<rect width="40" height="40" fill="white"/>
</clipPath>
</defs>
</svg>
